<svg width="27" height="24" viewBox="0 0 27 24" fill="none" xmlns="http://www.w3.org/2000/svg">
<path fill-rule="evenodd" clip-rule="evenodd" d="M6.31884 23.8477H0.716797V8.70386H6.31884V23.8477Z" fill="#0A142F"/>
<path fill-rule="evenodd" clip-rule="evenodd" d="M3.50116 5.33847H3.46934C1.79757 5.33847 0.716797 4.21619 0.716797 2.81363C0.716797 1.3814 1.83048 0.290527 3.53398 0.290527C5.23747 0.290527 6.28652 1.3814 6.31884 2.81363C6.31884 4.21619 5.23747 5.33847 3.50116 5.33847Z" fill="#0A142F"/>
<path fill-rule="evenodd" clip-rule="evenodd" d="M26.8596 23.8473H21.3548V15.9314C21.3548 13.9431 20.5582 12.5864 18.5653 12.5864C17.0445 12.5864 16.1386 13.501 15.7407 14.3845C15.5951 14.7011 15.5594 15.1422 15.5594 15.5844V23.8477H10.0537C10.0537 23.8477 10.1263 10.4401 10.0537 9.05169H15.5594V11.1474C16.2901 10.14 17.5987 8.70386 20.5215 8.70386C24.144 8.70386 26.8598 10.819 26.8598 15.3637L26.8596 23.8473Z" fill="#0A142F"/>
</svg>
