<svg width="864" height="912" viewBox="0 0 864 912" fill="none" xmlns="http://www.w3.org/2000/svg">
<path d="M513.091 522.777C513.249 522.92 513.399 523.07 513.542 523.228L514.826 524.557L519.781 529.805L538.477 549.829L604.722 621.255H603.956L679.099 535.188L679.617 534.603L680.045 535.256L685.518 543.5L742.371 629.094L741.582 628.959L796.227 585.306L796.543 585.058L796.813 585.351L838.529 632.653L849.791 645.56L852.72 648.938C853.373 649.704 853.688 650.11 853.688 650.11C853.688 650.11 853.305 649.749 852.629 649.028L849.656 645.56L838.169 632.811L796.182 585.846H796.768L742.258 629.792L741.808 630.153L741.47 629.657L684.55 544.198L679.054 535.932H679.977C652.632 567.241 626.909 596.636 604.744 621.999L604.362 622.427L603.979 621.999C576.769 592.401 553.996 567.669 538.026 550.28L519.556 530.008L514.713 524.647C514.195 524.039 513.789 523.588 513.474 523.25C513.159 522.912 513.069 522.8 513.091 522.777Z" fill="#E6E6E6"/>
<path d="M596.951 621.841C596.938 623.406 597.391 624.939 598.252 626.246C599.113 627.553 600.344 628.574 601.787 629.179C603.23 629.784 604.821 629.946 606.356 629.644C607.892 629.342 609.303 628.589 610.409 627.483C611.516 626.376 612.268 624.965 612.57 623.43C612.872 621.894 612.71 620.304 612.105 618.86C611.5 617.417 610.479 616.186 609.173 615.325C607.866 614.464 606.332 614.012 604.768 614.025C602.698 614.037 600.717 614.864 599.254 616.327C597.791 617.791 596.963 619.772 596.951 621.841Z" fill="#E0E0E0"/>
<path d="M734.96 631.234C734.969 632.794 735.441 634.317 736.315 635.608C737.19 636.9 738.429 637.904 739.874 638.491C741.319 639.079 742.906 639.225 744.434 638.91C745.962 638.595 747.363 637.834 748.458 636.723C749.553 635.612 750.294 634.201 750.587 632.669C750.88 631.136 750.712 629.551 750.103 628.115C749.495 626.678 748.474 625.454 747.17 624.598C745.865 623.742 744.336 623.292 742.776 623.305C740.689 623.323 738.695 624.168 737.229 625.654C735.764 627.14 734.948 629.147 734.96 631.234Z" fill="#E0E0E0"/>
<path d="M788.637 587.829C788.65 589.383 789.124 590.899 789.999 592.184C790.874 593.47 792.111 594.467 793.552 595.049C794.994 595.632 796.575 595.774 798.098 595.457C799.62 595.141 801.014 594.38 802.104 593.271C803.194 592.163 803.93 590.756 804.221 589.228C804.511 587.701 804.342 586.122 803.734 584.69C803.127 583.259 802.109 582.04 800.809 581.187C799.509 580.335 797.985 579.887 796.43 579.9C794.347 579.924 792.358 580.771 790.898 582.257C789.438 583.742 788.625 585.745 788.637 587.829Z" fill="#E0E0E0"/>
<path d="M671.666 536.247C671.675 537.807 672.146 539.33 673.021 540.622C673.896 541.914 675.134 542.917 676.579 543.505C678.025 544.092 679.612 544.238 681.14 543.923C682.668 543.609 684.068 542.847 685.164 541.736C686.259 540.625 687 539.214 687.293 537.682C687.586 536.149 687.417 534.564 686.809 533.128C686.2 531.691 685.18 530.467 683.875 529.611C682.571 528.755 681.042 528.305 679.482 528.318C677.395 528.336 675.4 529.181 673.935 530.667C672.47 532.153 671.654 534.16 671.666 536.247Z" fill="#E0E0E0"/>
<path d="M847.472 650.335C847.481 651.895 847.952 653.417 848.827 654.709C849.702 656.001 850.94 657.005 852.385 657.592C853.831 658.18 855.418 658.326 856.946 658.011C858.474 657.696 859.874 656.935 860.97 655.824C862.065 654.713 862.806 653.302 863.099 651.769C863.392 650.237 863.223 648.652 862.615 647.216C862.007 645.779 860.986 644.555 859.681 643.699C858.377 642.843 856.848 642.393 855.288 642.406C853.201 642.424 851.206 643.269 849.741 644.755C848.276 646.241 847.46 648.248 847.472 650.335Z" fill="#E0E0E0"/>
<path d="M156.997 53.8342H106.384V255.138H156.997V53.8342Z" fill="#0E233E"/>
<path d="M231.442 97.735H180.829V255.115H231.442V97.735Z" fill="#1B4869"/>
<path d="M307.035 133.684H256.422V255.115H307.035V133.684Z" fill="#358EBA"/>
<path d="M377.019 183.014H326.406V255.138H377.019V183.014Z" fill="#E6E6E6"/>
<path d="M336.497 3.604C336.497 3.604 336.024 4.21217 335.101 5.29336L330.889 10.1362L314.874 28.3812L257.12 93.703L256.805 94.0409L256.444 93.7706L218.76 64.8939H219.526L166.818 131.702L166.188 132.513L165.805 133.009L165.332 132.581L94.3562 69.8944H95.1446C67.2815 106.475 43.6755 137.716 26.7819 159.813L7.11782 185.514L1.86956 192.271L0.495548 194.006C0.342189 194.211 0.176709 194.406 0 194.591C0.127951 194.372 0.270954 194.161 0.427976 193.961L1.7344 192.159L6.84753 185.244L26.2414 159.363L94.2661 69.1285L94.6265 68.6555L95.0545 69.0384L166.12 131.567H165.264L165.895 130.756L218.67 63.9929L219.008 63.5649L219.436 63.9028L257.053 92.757H256.377L314.423 27.9533C321.428 20.1822 326.924 14.078 330.686 9.93347L334.988 5.20326C335.979 4.07702 336.497 3.604 336.497 3.604Z" fill="#0E233E"/>
<path d="M328.141 50.2978C328.123 49.956 328.161 49.6136 328.253 49.2842L328.816 46.401C329.402 43.7206 330.191 40.1616 331.069 35.8144C333.074 26.8045 335.912 14.5059 339.178 0.720792L339.899 1.39653L337.353 2.1849C323.23 6.53218 310.436 10.3839 301.156 13.1319L290.141 16.3079L287.123 17.1188C286.777 17.2479 286.411 17.3165 286.042 17.3215C286.365 17.146 286.705 17.0027 287.056 16.8936L290.006 15.88L300.908 12.3436C310.121 9.39283 322.892 5.40594 336.948 1.08119L339.493 0.315345L340.484 0L340.237 1.01361C337.106 14.8663 334.245 27.1198 331.992 36.0171C330.889 40.3193 329.988 43.8557 329.335 46.5136C329.019 47.6174 328.749 48.5634 328.546 49.3292C328.459 49.6703 328.323 49.9966 328.141 50.2978Z" fill="#E6E6E6"/>
<path d="M727.414 343.976C737.472 343.812 747.352 346.635 755.805 352.086C764.259 357.538 770.906 365.373 774.906 374.602C778.907 383.831 780.081 394.039 778.28 403.935C776.479 413.832 771.784 422.972 764.789 430.2C757.794 437.428 748.813 442.42 738.981 444.544C729.149 446.668 718.908 445.829 709.553 442.133C700.198 438.437 692.148 432.05 686.423 423.78C680.698 415.51 677.553 405.727 677.387 395.67C677.182 382.186 682.334 369.17 691.712 359.479C701.091 349.788 713.93 344.213 727.414 343.976ZM728.631 419.163C733.439 419.074 738.113 417.561 742.062 414.816C746.01 412.071 749.057 408.217 750.817 403.742C752.576 399.266 752.97 394.369 751.948 389.67C750.925 384.971 748.533 380.68 745.073 377.34C741.614 373.999 737.241 371.759 732.509 370.903C727.777 370.047 722.897 370.612 718.486 372.528C714.075 374.443 710.33 377.624 707.726 381.667C705.122 385.709 703.774 390.434 703.853 395.242C703.909 398.44 704.594 401.595 705.87 404.528C707.145 407.461 708.986 410.114 711.287 412.335C713.587 414.557 716.303 416.303 719.279 417.475C722.255 418.646 725.433 419.22 728.631 419.163Z" fill="#276B90"/>
<path d="M727.325 337.646C742.492 337.429 757.127 343.235 768.02 353.791C778.914 364.347 785.178 378.791 785.438 393.958L750.75 394.859C750.525 379.79 740.321 373.663 728.226 372.897C725.253 372.72 722.276 373.159 719.482 374.188C716.687 375.217 714.136 376.813 711.989 378.876C709.841 380.938 708.144 383.423 707.004 386.174C705.863 388.925 705.305 391.882 705.363 394.859L671.035 395.783C670.8 380.612 676.596 365.968 687.151 355.067C697.705 344.167 712.154 337.901 727.325 337.646Z" fill="#358EBA"/>
<path d="M315.572 568.097C333.082 549.723 357.105 538.956 382.473 538.114C407.841 537.271 432.525 546.42 451.216 563.592C460.398 572.054 467.808 582.255 473.018 593.602C478.229 604.95 481.135 617.218 481.568 629.697C482.002 642.176 479.955 654.617 475.545 666.298C471.135 677.98 464.451 688.67 455.879 697.75C438.368 716.124 414.345 726.89 388.978 727.733C363.61 728.575 338.925 719.426 320.235 702.255C311.053 693.792 303.642 683.592 298.432 672.245C293.222 660.897 290.316 648.629 289.882 636.15C289.448 623.671 291.496 611.23 295.906 599.548C300.315 587.867 307 577.176 315.572 568.097ZM419.186 663.917C423.295 659.578 426.5 654.465 428.614 648.876C430.728 643.286 431.709 637.332 431.499 631.359C431.29 625.387 429.894 619.516 427.393 614.088C424.893 608.66 421.337 603.784 416.933 599.744C407.987 591.543 396.177 587.184 384.048 587.605C371.919 588.027 360.44 593.195 352.085 601.997C347.975 606.336 344.77 611.449 342.656 617.039C340.542 622.628 339.561 628.583 339.771 634.555C339.981 640.528 341.376 646.399 343.877 651.826C346.378 657.254 349.934 662.13 354.337 666.17C363.283 674.39 375.104 678.761 387.245 678.34C399.387 677.919 410.876 672.738 419.231 663.917H419.186Z" fill="#1B4869"/>
<path d="M315.572 568.097C333.082 549.723 357.105 538.956 382.473 538.114C407.84 537.271 432.525 546.42 451.216 563.592L417.023 599.812C408.077 591.611 396.267 587.252 384.138 587.673C372.009 588.094 360.53 593.262 352.175 602.064C348.065 606.403 344.86 611.517 342.746 617.106C340.632 622.696 339.651 628.65 339.861 634.623C340.071 640.595 341.466 646.466 343.967 651.894C346.468 657.321 350.024 662.197 354.427 666.237L320.189 702.322C311.001 693.856 303.585 683.649 298.373 672.294C293.161 660.939 290.255 648.662 289.826 636.175C289.396 623.688 291.451 611.24 295.871 599.554C300.29 587.867 306.987 577.175 315.572 568.097Z" fill="#1B4869"/>
<path d="M447.297 548.028C494.599 591.793 500.343 662.904 456.081 709.845L408.036 668.422C429.187 646.01 433.782 616.075 411.145 595.149L447.297 548.028Z" fill="#358EBA"/>
<path d="M403.036 671.396L431.575 727.843C443.375 723.517 454.009 716.508 462.636 707.368L411.37 665.967L403.036 671.396Z" fill="#0E233E"/>
<path d="M510.704 150.353C510.288 125.051 517.386 100.194 531.1 78.9275C544.813 57.6605 564.527 40.9388 587.746 30.8777C610.965 20.8167 636.646 17.8683 661.541 22.4058C686.436 26.9432 709.426 38.7624 727.603 56.3683C745.779 73.9742 758.325 96.5756 763.654 121.313C768.983 146.051 766.855 171.813 757.54 195.341C748.224 218.87 732.139 239.106 711.32 253.491C690.501 267.876 665.884 275.762 640.582 276.154C606.693 276.636 573.996 263.666 549.652 240.086C525.308 216.507 511.302 184.239 510.704 150.353ZM699.754 147.312C699.557 135.219 695.778 123.456 688.895 113.511C682.013 103.565 672.336 95.884 661.088 91.438C649.84 86.992 637.527 85.981 625.705 88.5329C613.882 91.0847 603.082 97.0848 594.67 105.774C586.257 114.464 580.61 125.453 578.443 137.352C576.275 149.251 577.685 161.525 582.493 172.623C587.301 183.72 595.292 193.143 605.455 199.7C615.618 206.256 627.497 209.652 639.59 209.458C655.805 209.179 671.246 202.479 682.525 190.828C693.805 179.177 700.001 163.527 699.754 147.312Z" fill="#0E233E"/>
<path d="M510.704 150.353C510.192 116.442 523.155 83.7133 546.749 59.3508C570.343 34.9882 602.64 20.9824 636.549 20.4075L637.631 87.1483C621.411 87.4082 605.96 94.1005 594.675 105.753C583.39 117.405 577.196 133.064 577.456 149.283C577.716 165.502 584.408 180.954 596.06 192.239C607.713 203.524 623.371 209.718 639.59 209.458L640.581 276.154C606.69 276.648 573.985 263.682 549.639 240.1C525.292 216.517 511.29 184.243 510.704 150.353Z" fill="#358EBA"/>
<path d="M625.062 10.1361C707.57 8.80717 773.41 72.5522 774.717 155.06L696.623 156.322C695.993 116.858 665.832 92.0136 626.391 92.6669L625.062 10.1361Z" fill="#1B4869"/>
<path d="M254.214 598.866L671.598 595.87V601.726L254.214 605.466V598.866Z" fill="#263238"/>
<path d="M245.114 174.522L254.62 602.357L671.598 599.114V167.336L245.114 174.522Z" fill="white"/>
<path d="M245.114 174.522L671.598 166.841H672.116V167.359C672.116 290.952 672.116 436.8 672.116 592.401V599.722H671.531L254.552 602.898H254.057V602.402C248.673 345.98 245.159 178.937 245.047 174.544C245.047 178.869 249.056 345.98 255.048 602.357L254.552 601.862L671.531 598.551L670.945 599.136V592.379C670.945 436.778 670.945 290.93 670.945 167.336L671.463 167.855L245.114 174.522Z" fill="#263238"/>
<path d="M243.447 177.383L673.422 174.927L673.963 156.885L243.447 159.565V177.383Z" fill="#263238"/>
<path d="M449.279 614.025C448.558 614.025 447.792 610.669 447.59 606.479C447.387 602.29 447.837 598.866 448.558 598.821C449.279 598.776 450.045 602.155 450.248 606.344C450.45 610.534 450.022 614.025 449.279 614.025Z" fill="#263238"/>
<path d="M449.121 610.939C449.121 610.781 449.842 610.736 450.968 611.187C451.648 611.473 452.284 611.852 452.86 612.313C453.635 612.936 454.284 613.7 454.774 614.566C455.443 615.763 455.778 617.116 455.747 618.487C455.715 619.857 455.317 621.194 454.594 622.359C454.161 623.061 453.613 623.686 452.972 624.206C452.304 624.743 451.54 625.149 450.72 625.4C448.979 625.881 447.125 625.746 445.472 625.017C444.636 624.645 443.873 624.126 443.219 623.485C442.569 622.844 442.056 622.078 441.71 621.233C441.086 619.697 440.952 618.005 441.327 616.39C441.604 615.044 442.253 613.802 443.201 612.807C444.149 611.811 445.357 611.102 446.688 610.759C448.392 610.293 450.205 610.453 451.801 611.209C452.882 611.75 453.288 612.313 453.198 612.448C453.108 612.583 452.499 612.448 451.463 612.178C450.053 611.915 448.597 612.039 447.251 612.538C446.385 612.875 445.612 613.416 444.999 614.115C444.295 614.939 443.836 615.942 443.673 617.013C443.51 618.084 443.649 619.179 444.075 620.174C444.566 621.244 445.443 622.089 446.53 622.539C447.613 623.024 448.828 623.127 449.977 622.832C451.033 622.559 451.949 621.9 452.544 620.985C453.131 620.122 453.481 619.12 453.558 618.079C453.626 617.609 453.626 617.131 453.558 616.66C453.485 616.218 453.356 615.787 453.175 615.377C452.598 614.051 451.69 612.896 450.54 612.02C449.706 611.435 449.121 611.119 449.121 610.939Z" fill="#263238"/>
<path d="M511.154 408.644C511.154 408.644 511.154 408.644 510.884 408.644H510.118L507.145 408.779L495.68 409.275L453.513 410.852C417.902 412.158 368.685 413.893 314.355 415.762L295.66 416.393H295.232V415.965C291.448 366.253 288.024 321.699 285.659 289.668C284.488 273.676 283.564 260.814 282.911 251.962C282.618 247.457 282.37 244.101 282.213 241.781C282.213 240.61 282.077 239.731 282.055 239.123C282.032 238.515 282.055 238.605 282.055 238.447C282.055 238.289 282.055 238.222 282.055 238.222C282.065 238.297 282.065 238.372 282.055 238.447C282.055 238.605 282.055 238.83 282.055 239.123C282.055 239.416 282.19 240.61 282.303 241.758C282.483 244.011 282.776 247.502 283.159 251.939C283.857 260.792 284.893 273.653 286.177 289.601C288.7 321.541 292.169 365.982 295.998 415.897L295.547 415.492L314.243 414.839C368.573 412.992 417.857 411.347 453.401 410.221L495.59 408.915L507.055 408.599H510.028H511.064L511.154 408.644Z" fill="#455A64"/>
<path d="M360.171 224.369V230.113L419.591 227.275V222.455L360.171 224.369Z" fill="#263238"/>
<path d="M315.189 403.734H335.844L332.6 347.67H312.351L315.189 403.734Z" fill="#286B91"/>
<path d="M352.625 403.756H373.257L370.036 325.393H349.787L352.625 403.756Z" fill="#286B91"/>
<path d="M387.674 401.256H408.329L405.085 298.656H384.858L387.674 401.256Z" fill="#286B91"/>
<path d="M468.087 397.269H488.719L485.498 257.436H465.249L468.087 397.269Z" fill="#286B91"/>
<path d="M428.962 397.742H449.594L446.351 277.415H426.124L428.962 397.742Z" fill="#286B91"/>
<path d="M302.214 333.141C301.674 332.308 338.569 307.711 384.587 278.203C430.606 248.696 468.402 225.45 468.943 226.396C469.483 227.342 432.588 251.827 386.547 281.334C340.506 310.842 302.71 333.975 302.214 333.141Z" fill="#286B91"/>
<path d="M448.513 226.306C448.333 225.315 461.69 221.982 478.403 218.828L482.638 218.04L480.228 221.621L480.093 221.824C470.542 236.014 462.073 247.074 461.285 246.601C460.496 246.128 467.546 234.1 477.052 219.887L477.187 219.684L479.034 222.477C462.343 225.518 448.693 227.275 448.513 226.306Z" fill="#286B91"/>
<path d="M312.351 422.677H333.929L334.605 426.506H312.351V422.677Z" fill="#263238"/>
<path d="M350.553 421.1H372.131L372.807 424.93H350.553V421.1Z" fill="#263238"/>
<path d="M389.881 419.974H411.46L412.135 423.803H389.881V419.974Z" fill="#263238"/>
<path d="M426.731 419.051H448.31L448.986 422.902H426.731V419.051Z" fill="#263238"/>
<path d="M472.389 417.699H493.968L494.644 421.551H472.389V417.699Z" fill="#263238"/>
<path d="M569.178 570.372C607.22 570.372 638.059 539.533 638.059 501.491C638.059 463.45 607.22 432.611 569.178 432.611C531.136 432.611 500.297 463.45 500.297 501.491C500.297 539.533 531.136 570.372 569.178 570.372Z" fill="#286B91"/>
<path opacity="0.3" d="M569.178 570.372C607.22 570.372 638.059 539.533 638.059 501.491C638.059 463.45 607.22 432.611 569.178 432.611C531.136 432.611 500.297 463.45 500.297 501.491C500.297 539.533 531.136 570.372 569.178 570.372Z" fill="black"/>
<path d="M569.178 501.401L501.987 516.515C491.175 466.961 531.134 432.521 569.178 432.521" fill="#286B91"/>
<path d="M569.268 501.401L568.818 432.521C619.544 432.521 644.681 478.899 636.572 516.065L569.268 501.401Z" fill="#286B91"/>
<path d="M569.268 501.401L568.818 432.521C619.544 432.521 644.681 478.899 636.572 516.065L569.268 501.401Z" fill="#286B91"/>
<path opacity="0.1" d="M569.268 501.401L568.818 432.521C619.544 432.521 644.681 478.899 636.572 516.065L569.268 501.401Z" fill="black"/>
<path d="M639.838 338.39C638.5 337.495 637.074 336.74 635.581 336.137C631.421 334.865 626.959 334.991 622.877 336.497C617.606 338.142 612.381 342.331 607.313 347.58C602.245 352.828 596.816 359.18 588.887 362.896C585.062 364.797 580.755 365.511 576.521 364.946C572.701 364.154 569.009 362.835 565.552 361.027C562.508 359.442 559.254 358.297 555.889 357.626C552.961 357.166 549.963 357.541 547.239 358.707C543.23 360.408 539.951 363.472 537.981 367.356C537.348 368.816 536.829 370.322 536.427 371.861C536.498 370.232 536.888 368.632 537.576 367.154C539.462 363.052 542.777 359.777 546.901 357.941C549.727 356.683 552.847 356.239 555.911 356.657C559.388 357.302 562.756 358.44 565.912 360.036C569.28 361.783 572.873 363.056 576.589 363.82C580.596 364.319 584.661 363.629 588.279 361.838C595.893 358.279 601.231 351.972 606.434 346.814C611.637 341.656 617.021 337.308 622.494 335.709C626.746 334.226 631.375 334.226 635.626 335.709C636.761 336.146 637.829 336.737 638.802 337.466C639.184 337.73 639.532 338.04 639.838 338.39Z" fill="#263238"/>
<path d="M645.672 382.898C645.672 383.236 621.21 383.484 591.05 383.484C560.889 383.484 536.427 383.236 536.427 382.898C536.427 382.561 560.889 382.313 591.05 382.313C621.21 382.313 645.672 382.583 645.672 382.898Z" fill="#263238"/>
<path d="M639.591 382.898C639.275 382.898 639.005 368.978 639.005 351.792C639.005 334.605 639.275 320.708 639.591 320.708C639.906 320.708 640.176 334.628 640.176 351.792C640.176 368.956 639.928 382.898 639.591 382.898Z" fill="#263238"/>
<path d="M547.442 356.702C547.442 356.702 547.284 356.477 547.442 356.071C547.545 355.787 547.71 355.529 547.924 355.315C548.138 355.101 548.396 354.936 548.681 354.833C549.109 354.643 549.581 354.575 550.045 354.634C550.51 354.694 550.949 354.879 551.316 355.17C551.713 355.616 551.947 356.182 551.98 356.778C552.013 357.374 551.843 357.963 551.498 358.449C551.153 358.936 550.653 359.291 550.08 359.456C549.507 359.622 548.894 359.588 548.343 359.36C547.955 359.128 547.636 358.798 547.418 358.402C547.2 358.006 547.092 357.559 547.104 357.108C547.099 356.807 547.155 356.509 547.267 356.231C547.379 355.952 547.546 355.699 547.757 355.486C548.095 355.215 548.343 355.215 548.365 355.26C548.388 355.306 547.757 355.914 547.915 357.062C547.946 357.358 548.046 357.642 548.206 357.892C548.367 358.142 548.583 358.352 548.838 358.504C549.154 358.584 549.487 358.566 549.793 358.454C550.099 358.342 550.364 358.14 550.554 357.875C550.743 357.61 550.849 357.294 550.856 356.968C550.863 356.643 550.773 356.322 550.595 356.049C550.369 355.863 550.101 355.736 549.815 355.677C549.528 355.618 549.232 355.63 548.951 355.711C547.802 355.891 547.599 356.747 547.442 356.702Z" fill="#263238"/>
<path d="M621.098 334.11C621.098 334.11 621.098 333.839 621.503 333.614C622.027 333.351 622.633 333.302 623.193 333.479C623.637 333.6 624.04 333.84 624.358 334.174C624.675 334.507 624.896 334.921 624.995 335.371C625.029 335.952 624.867 336.528 624.535 337.005C624.202 337.483 623.718 337.834 623.162 338.004C622.605 338.173 622.007 338.149 621.465 337.937C620.923 337.725 620.469 337.337 620.174 336.835C620.012 336.401 619.97 335.931 620.053 335.475C620.137 335.019 620.342 334.594 620.647 334.245C621.028 333.795 621.57 333.512 622.156 333.457C622.562 333.457 622.765 333.592 622.742 333.659C622.72 333.727 621.886 333.772 621.323 334.74C621.167 334.982 621.07 335.256 621.039 335.541C621.007 335.827 621.043 336.116 621.143 336.385C621.341 336.628 621.607 336.807 621.907 336.898C622.207 336.989 622.528 336.988 622.827 336.897C623.127 336.805 623.393 336.625 623.59 336.382C623.788 336.138 623.908 335.841 623.936 335.529C623.876 335.248 623.751 334.986 623.571 334.763C623.391 334.54 623.161 334.362 622.9 334.245C621.909 333.749 621.21 334.267 621.098 334.11Z" fill="#263238"/>
<path d="M637.653 260.386C637.653 260.702 613.957 260.972 584.743 260.972C555.528 260.972 531.832 260.702 531.832 260.386C531.832 260.071 555.506 259.801 584.743 259.801C613.98 259.801 637.653 260.116 637.653 260.386Z" fill="#263238"/>
<path d="M637.653 275.14C637.653 275.478 613.957 275.725 584.743 275.725C555.528 275.725 531.832 275.478 531.832 275.14C531.832 274.802 555.506 274.554 584.743 274.554C613.98 274.554 637.653 274.825 637.653 275.14Z" fill="#263238"/>
<path d="M637.653 289.849C637.653 290.164 613.957 290.434 584.743 290.434C555.528 290.434 531.832 290.164 531.832 289.849C531.832 289.533 555.506 289.263 584.743 289.263C613.98 289.263 637.653 289.511 637.653 289.849Z" fill="#263238"/>
<path d="M637.653 304.535C637.653 304.873 613.957 305.12 584.743 305.12C555.528 305.12 531.832 304.873 531.832 304.535C531.832 304.197 555.506 303.949 584.743 303.949C613.98 303.949 637.653 304.219 637.653 304.535Z" fill="#263238"/>
<path d="M588.144 233.559H531.832V238.312H588.144V233.559Z" fill="#263238"/>
<path d="M355.688 469.529H299.376V474.281H355.688V469.529Z" fill="#263238"/>
<path d="M453.469 497.076C453.469 497.414 419.299 497.662 377.155 497.662C335.011 497.662 300.818 497.414 300.818 497.076C300.818 496.738 334.988 496.491 377.155 496.491C419.321 496.491 453.469 496.761 453.469 497.076Z" fill="#263238"/>
<path d="M454.369 510.411C454.369 510.726 419.591 510.997 376.704 510.997C333.817 510.997 299.039 510.726 299.039 510.411C299.039 510.096 333.794 509.825 376.704 509.825C419.614 509.825 454.369 510.141 454.369 510.411Z" fill="#263238"/>
<path d="M456.149 522.98C456.149 523.295 421.168 523.566 378.033 523.566C334.898 523.566 299.917 523.295 299.917 522.98C299.917 522.665 334.898 522.394 378.033 522.394C421.168 522.394 456.149 522.642 456.149 522.98Z" fill="#263238"/>
<path d="M381.164 536.36C381.164 536.675 363.144 536.945 340.98 536.945C318.816 536.945 300.818 536.675 300.818 536.36C300.818 536.044 318.838 535.774 340.98 535.774C363.122 535.774 381.164 536.044 381.164 536.36Z" fill="#263238"/>
<path d="M135.87 900.99V880.718L97.7353 880.38L97.4199 910.18L99.6724 910.338C110.191 910.991 153.191 912.906 160.241 910.834C168.215 908.491 135.87 900.99 135.87 900.99Z" fill="#286B91"/>
<path d="M161.255 908.964C161.255 909.325 146.997 909.618 129.405 909.618C111.813 909.618 97.5327 909.325 97.5327 908.964C97.5327 908.604 111.813 908.311 129.405 908.311C146.997 908.311 161.255 908.604 161.255 908.964Z" fill="#263238"/>
<path d="M136.546 905.158C136.23 904.977 136.546 903.874 137.311 902.905C138.077 901.936 139.136 901.306 139.361 901.554C139.586 901.801 139.091 902.725 138.348 903.806C137.604 904.887 136.861 905.338 136.546 905.158Z" fill="#263238"/>
<path d="M138.978 906.486C138.64 906.351 138.82 905.135 139.563 903.874C140.307 902.612 141.298 901.846 141.568 902.072C141.838 902.297 141.388 903.356 140.69 904.527C139.991 905.698 139.316 906.622 138.978 906.486Z" fill="#263238"/>
<path d="M108.997 908.829C108.84 908.942 108.254 908.401 107.421 907.5C106.406 906.323 105.283 905.244 104.065 904.279C102.85 903.386 101.434 902.806 99.9425 902.59C98.7938 902.432 98.0504 902.59 97.9829 902.409C97.9153 902.229 98.6361 901.756 99.965 901.666C101.716 901.616 103.433 902.164 104.83 903.22C106.163 904.241 107.293 905.502 108.164 906.937C108.862 907.996 109.178 908.716 108.997 908.829Z" fill="#263238"/>
<path d="M136.658 901.328C136.838 901.621 136.162 902.342 135.081 902.725C134 903.108 133.031 902.973 132.986 902.612C132.941 902.252 133.685 901.846 134.653 901.509C135.622 901.171 136.455 901.013 136.658 901.328Z" fill="#263238"/>
<path d="M136.027 899.346C136.027 899.706 135.036 900.022 133.775 900.044C132.514 900.067 131.522 899.774 131.522 899.414C131.522 899.053 132.559 898.76 133.775 898.738C134.991 898.715 136.027 898.986 136.027 899.346Z" fill="#286B91"/>
<path d="M161.255 908.964C161.255 909.325 146.997 909.618 129.405 909.618C111.813 909.618 97.5327 909.325 97.5327 908.964C97.5327 908.604 111.813 908.311 129.405 908.311C146.997 908.311 161.255 908.604 161.255 908.964Z" fill="#263238"/>
<path d="M136.546 905.158C136.23 904.977 136.546 903.874 137.311 902.905C138.077 901.936 139.136 901.306 139.361 901.554C139.586 901.801 139.091 902.725 138.348 903.806C137.604 904.887 136.861 905.338 136.546 905.158Z" fill="#263238"/>
<path d="M138.978 906.486C138.64 906.351 138.82 905.135 139.563 903.874C140.307 902.612 141.298 901.846 141.568 902.072C141.838 902.297 141.388 903.356 140.69 904.527C139.991 905.698 139.316 906.622 138.978 906.486Z" fill="#263238"/>
<path d="M108.997 908.829C108.84 908.942 108.254 908.401 107.421 907.5C106.406 906.323 105.283 905.244 104.065 904.279C102.85 903.386 101.434 902.806 99.9425 902.59C98.7938 902.432 98.0504 902.59 97.9829 902.409C97.9153 902.229 98.6361 901.756 99.965 901.666C101.716 901.616 103.433 902.164 104.83 903.22C106.163 904.241 107.293 905.502 108.164 906.937C108.862 907.996 109.178 908.716 108.997 908.829Z" fill="#263238"/>
<path d="M136.658 901.328C136.838 901.621 136.162 902.342 135.081 902.725C134 903.108 133.031 902.973 132.986 902.612C132.941 902.252 133.685 901.846 134.653 901.509C135.622 901.171 136.455 901.013 136.658 901.328Z" fill="#263238"/>
<path d="M136.027 899.346C136.027 899.706 135.036 900.022 133.775 900.044C132.514 900.067 131.522 899.774 131.522 899.414C131.522 899.053 132.559 898.76 133.775 898.738C134.991 898.715 136.027 898.986 136.027 899.346Z" fill="#263238"/>
<path d="M176.099 893.783L182.113 874.344L145.758 862.811L136.748 891.17L139.001 892.026C148.844 895.765 189.366 910.316 196.709 910.428C204.773 910.518 176.099 893.783 176.099 893.783Z" fill="#286B91"/>
<path d="M197.993 908.897C197.993 909.257 184.163 905.315 167.359 900.089C150.556 894.864 137.018 890.381 137.131 890.043C137.244 889.706 150.939 893.647 167.765 898.851C184.591 904.054 198.106 908.559 197.993 908.897Z" fill="#263238"/>
<path d="M175.513 897.95C175.265 897.679 175.851 896.733 176.932 895.945C178.013 895.156 179.185 894.954 179.297 895.269C179.41 895.584 178.689 896.305 177.698 897.026C176.707 897.747 175.761 898.197 175.513 897.95Z" fill="#263238"/>
<path d="M177.427 899.954C177.157 899.729 177.675 898.603 178.779 897.702C179.883 896.801 181.031 896.283 181.234 896.575C181.437 896.868 180.671 897.747 179.657 898.67C178.644 899.594 177.72 900.089 177.427 899.954Z" fill="#263238"/>
<path d="M148.145 893.332C147.965 893.332 147.582 892.724 147.064 891.598C146.445 890.177 145.691 888.819 144.812 887.543C143.917 886.334 142.742 885.36 141.388 884.705C140.329 884.232 139.563 884.142 139.563 883.962C139.563 883.782 140.374 883.511 141.681 883.827C143.361 884.304 144.83 885.336 145.848 886.755C146.812 888.118 147.522 889.644 147.943 891.26C148.235 892.476 148.303 893.332 148.145 893.332Z" fill="#455A64"/>
<path d="M176.752 894.323C176.752 894.661 175.986 895.157 174.837 895.202C173.689 895.247 172.788 894.819 172.855 894.458C172.923 894.098 173.779 893.94 174.792 893.895C175.806 893.85 176.572 893.963 176.752 894.323Z" fill="#263238"/>
<path d="M176.752 892.273C176.752 892.611 175.626 892.611 174.387 892.273C173.148 891.935 172.27 891.327 172.382 890.989C172.495 890.652 173.576 890.674 174.747 890.989C175.919 891.305 176.842 891.913 176.752 892.273Z" fill="#263238"/>
<path d="M201.98 498.315L151.93 494.464L76.1113 488.314L84.5806 895.585L150.421 894.729C150.421 894.729 150.421 890.224 150.263 882.25L188.87 892.814C188.87 892.814 226.487 765.729 239.303 713.585C250.002 670.134 201.98 498.315 201.98 498.315ZM149.542 819C148.551 724.982 147.402 565.101 148.776 545.55C148.776 545.55 185.447 686.307 185.784 697.412C186.01 704.124 165.58 769.085 149.542 819Z" fill="#455A64"/>
<path d="M150.781 879.299C150.781 879.659 136.049 879.952 117.895 879.952C99.7396 879.952 84.9858 879.659 84.9858 879.299C84.9858 878.939 99.717 878.646 117.895 878.646C136.072 878.646 150.781 878.939 150.781 879.299Z" fill="#455A64"/>
<path d="M150.195 864.658C152.255 865.146 154.273 865.794 156.232 866.595L171.301 871.843L186.37 877.114C188.501 877.723 190.568 878.538 192.542 879.547C190.341 879.241 188.176 878.72 186.077 877.993C182.158 876.844 176.775 875.132 170.873 873.082C164.972 871.033 159.611 869.005 155.917 867.451C153.889 866.79 151.964 865.849 150.195 864.658Z" fill="#455A64"/>
<path d="M210.517 696.15C206.445 697.099 202.286 697.628 198.106 697.727C193.96 698.256 189.77 698.354 185.604 698.02C189.674 697.054 193.834 696.518 198.016 696.42C202.162 695.892 206.352 695.801 210.517 696.15Z" fill="#455A64"/>
<path d="M206.214 703.538C202.976 703.265 199.788 702.568 196.731 701.466C193.55 700.772 190.475 699.658 187.586 698.155C190.834 698.401 194.032 699.091 197.092 700.205C202.228 701.691 206.327 703.178 206.214 703.538Z" fill="#455A64"/>
<path d="M154.835 494.982C155.138 497.553 155.251 500.142 155.173 502.73C155.173 507.528 155.173 514.15 155.173 521.471C155.173 525.097 155.173 528.566 155.038 531.765C155.12 534.646 154.583 537.511 153.461 540.166C152.662 541.976 151.385 543.533 149.767 544.671C149.215 545.129 148.557 545.439 147.853 545.572C147.853 545.572 148.483 545.167 149.497 544.311C150.919 543.092 152.024 541.546 152.718 539.806C153.657 537.225 154.078 534.485 153.957 531.742C153.957 528.521 153.957 524.985 153.957 521.426C153.957 514.105 154.137 507.483 154.272 502.708C154.265 500.122 154.453 497.539 154.835 494.982Z" fill="#455A64"/>
<path d="M117.152 492.684C117.176 493.014 117.176 493.345 117.152 493.675C117.152 494.396 117.152 495.365 117.152 496.603C117.152 499.216 116.949 503 116.791 507.866C116.476 517.664 116.026 531.742 115.462 549.109C114.404 583.932 113.323 632.067 113.052 685.203C112.782 738.339 113.39 786.565 114.088 821.365C114.471 838.732 114.764 852.9 114.989 862.608C114.989 867.451 115.17 871.213 115.237 873.871C115.237 875.109 115.237 876.123 115.237 876.799C115.261 877.129 115.261 877.46 115.237 877.79C115.213 877.46 115.213 877.129 115.237 876.799C115.237 876.101 115.237 875.132 115.079 873.893C115.079 871.258 114.832 867.496 114.629 862.631C114.246 852.9 113.796 838.8 113.345 821.388C112.422 786.542 111.701 738.407 111.971 685.203C112.241 632 113.458 583.842 114.719 549.086C115.35 531.674 115.935 517.551 116.431 507.843C116.679 503.023 116.881 499.261 117.017 496.581C117.017 495.342 117.152 494.328 117.197 493.653C117.159 493.331 117.144 493.008 117.152 492.684Z" fill="#455A64"/>
<path d="M185.582 502.933C185.719 503.231 185.832 503.54 185.92 503.856C186.123 504.532 186.415 505.433 186.776 506.604C187.497 509.014 188.645 512.573 189.907 517.213C192.497 526.471 195.988 539.918 199.885 556.654C203.782 573.39 208.107 593.347 212.612 615.602C217.117 637.856 221.869 662.363 226.127 688.221C226.667 691.465 227.163 694.686 227.591 697.907C227.591 698.763 227.748 699.642 227.748 700.475L227.343 702.863C227.05 704.462 226.825 706.061 226.464 707.615C225.181 713.877 223.739 720.004 222.185 725.995C219.121 737.979 215.878 749.444 212.679 760.346C206.327 782.15 200.201 801.656 194.997 818.032C189.794 834.407 185.447 847.584 182.383 856.684L178.825 867.158L177.856 869.884C177.772 870.197 177.651 870.5 177.496 870.785C177.554 870.464 177.637 870.147 177.743 869.839C177.969 869.163 178.239 868.262 178.599 867.091L181.955 856.549L194.209 817.784C199.3 801.386 205.336 781.857 211.643 760.053C214.797 749.151 218.018 737.663 221.081 725.703C222.613 719.734 224.054 713.629 225.338 707.39C225.699 705.836 225.901 704.259 226.172 702.682L226.577 700.317C226.577 699.551 226.464 698.808 226.419 698.065C225.991 694.889 225.518 691.668 224.978 688.447C220.698 662.611 215.968 638.104 211.463 615.849C206.958 593.595 202.881 573.48 199.097 556.834C195.313 540.189 191.911 526.606 189.456 517.326C188.285 512.686 187.204 509.105 186.551 506.672L185.807 503.901C185.697 503.588 185.621 503.263 185.582 502.933Z" fill="#455A64"/>
<path d="M149.339 810.734C149.521 811.782 149.589 812.847 149.542 813.91C149.542 816.162 149.542 819.113 149.655 822.604C149.655 830.15 149.925 840.174 150.083 851.233C150.24 862.293 150.668 872.316 150.871 879.862C150.871 883.353 151.051 886.282 151.119 888.557C151.221 889.613 151.221 890.677 151.119 891.733C150.87 890.699 150.734 889.642 150.713 888.579C150.533 886.53 150.33 883.579 150.105 879.907C149.655 872.587 149.227 862.451 148.979 851.256C148.731 840.061 148.776 829.925 148.979 822.604C148.979 818.933 149.137 815.847 149.227 813.91C149.181 812.85 149.219 811.788 149.339 810.734Z" fill="#455A64"/>
<path d="M201.98 498.315L151.93 494.464L76.1113 488.314L84.5806 895.585L150.421 894.729C150.421 894.729 150.421 890.224 150.263 882.25L188.87 892.814C188.87 892.814 226.487 765.729 239.303 713.585C250.002 670.134 201.98 498.315 201.98 498.315ZM149.542 819C148.551 724.982 147.402 565.101 148.776 545.55C148.776 545.55 185.447 686.307 185.784 697.412C186.01 704.124 165.58 769.085 149.542 819Z" fill="#263238"/>
<path d="M150.781 879.299C150.781 879.659 136.049 879.952 117.895 879.952C99.7396 879.952 84.9858 879.659 84.9858 879.299C84.9858 878.939 99.717 878.646 117.895 878.646C136.072 878.646 150.781 878.939 150.781 879.299Z" fill="#455A64"/>
<path d="M150.195 864.658C152.255 865.146 154.273 865.794 156.232 866.595L171.301 871.843L186.37 877.114C188.501 877.723 190.568 878.538 192.542 879.547C190.341 879.241 188.176 878.72 186.077 877.993C182.158 876.844 176.775 875.132 170.873 873.082C164.972 871.033 159.611 869.005 155.917 867.451C153.889 866.79 151.964 865.849 150.195 864.658Z" fill="#455A64"/>
<path d="M210.517 696.15C206.445 697.099 202.286 697.628 198.106 697.727C193.96 698.256 189.77 698.354 185.604 698.02C189.674 697.054 193.834 696.518 198.016 696.42C202.162 695.892 206.352 695.801 210.517 696.15Z" fill="#455A64"/>
<path d="M206.214 703.538C202.976 703.265 199.788 702.568 196.731 701.466C193.55 700.772 190.475 699.658 187.586 698.155C190.834 698.401 194.032 699.091 197.092 700.205C202.228 701.691 206.327 703.178 206.214 703.538Z" fill="#455A64"/>
<path d="M154.835 494.982C155.138 497.553 155.251 500.142 155.173 502.73C155.173 507.528 155.173 514.15 155.173 521.471C155.173 525.097 155.173 528.566 155.038 531.765C155.12 534.646 154.583 537.511 153.461 540.166C152.662 541.976 151.385 543.533 149.767 544.671C149.215 545.129 148.557 545.439 147.853 545.572C147.853 545.572 148.483 545.167 149.497 544.311C150.919 543.092 152.024 541.546 152.718 539.806C153.657 537.225 154.078 534.485 153.957 531.742C153.957 528.521 153.957 524.985 153.957 521.426C153.957 514.105 154.137 507.483 154.272 502.708C154.265 500.122 154.453 497.539 154.835 494.982Z" fill="#455A64"/>
<path d="M117.152 492.684C117.176 493.014 117.176 493.345 117.152 493.675C117.152 494.396 117.152 495.365 117.152 496.603C117.152 499.216 116.949 503 116.791 507.866C116.476 517.664 116.026 531.742 115.462 549.109C114.404 583.932 113.323 632.067 113.052 685.203C112.782 738.339 113.39 786.565 114.088 821.365C114.471 838.732 114.764 852.9 114.989 862.608C114.989 867.451 115.17 871.213 115.237 873.871C115.237 875.109 115.237 876.123 115.237 876.799C115.261 877.129 115.261 877.46 115.237 877.79C115.213 877.46 115.213 877.129 115.237 876.799C115.237 876.101 115.237 875.132 115.079 873.893C115.079 871.258 114.832 867.496 114.629 862.631C114.246 852.9 113.796 838.8 113.345 821.388C112.422 786.542 111.701 738.407 111.971 685.203C112.241 632 113.458 583.842 114.719 549.086C115.35 531.674 115.935 517.551 116.431 507.843C116.679 503.023 116.881 499.261 117.017 496.581C117.017 495.342 117.152 494.328 117.197 493.653C117.159 493.331 117.144 493.008 117.152 492.684Z" fill="#455A64"/>
<path d="M185.582 502.933C185.719 503.231 185.832 503.54 185.92 503.856C186.123 504.532 186.415 505.433 186.776 506.604C187.497 509.014 188.645 512.573 189.907 517.213C192.497 526.471 195.988 539.918 199.885 556.654C203.782 573.39 208.107 593.347 212.612 615.602C217.117 637.856 221.869 662.363 226.127 688.221C226.667 691.465 227.163 694.686 227.591 697.907C227.591 698.763 227.748 699.642 227.748 700.475L227.343 702.863C227.05 704.462 226.825 706.061 226.464 707.615C225.181 713.877 223.739 720.004 222.185 725.995C219.121 737.979 215.878 749.444 212.679 760.346C206.327 782.15 200.201 801.656 194.997 818.032C189.794 834.407 185.447 847.584 182.383 856.684L178.825 867.158L177.856 869.884C177.772 870.197 177.651 870.5 177.496 870.785C177.554 870.464 177.637 870.147 177.743 869.839C177.969 869.163 178.239 868.262 178.599 867.091L181.955 856.549L194.209 817.784C199.3 801.386 205.336 781.857 211.643 760.053C214.797 749.151 218.018 737.663 221.081 725.703C222.613 719.734 224.054 713.629 225.338 707.39C225.699 705.836 225.901 704.259 226.172 702.682L226.577 700.317C226.577 699.551 226.464 698.808 226.419 698.065C225.991 694.889 225.518 691.668 224.978 688.447C220.698 662.611 215.968 638.104 211.463 615.849C206.958 593.595 202.881 573.48 199.097 556.834C195.313 540.189 191.911 526.606 189.456 517.326C188.285 512.686 187.204 509.105 186.551 506.672L185.807 503.901C185.697 503.588 185.621 503.263 185.582 502.933Z" fill="#455A64"/>
<path d="M149.339 810.734C149.521 811.782 149.589 812.847 149.542 813.91C149.542 816.162 149.542 819.113 149.655 822.604C149.655 830.15 149.925 840.174 150.083 851.233C150.24 862.293 150.668 872.316 150.871 879.862C150.871 883.353 151.051 886.282 151.119 888.557C151.221 889.613 151.221 890.677 151.119 891.733C150.87 890.699 150.734 889.642 150.713 888.579C150.533 886.53 150.33 883.579 150.105 879.907C149.655 872.587 149.227 862.451 148.979 851.256C148.731 840.061 148.776 829.925 148.979 822.604C148.979 818.933 149.137 815.847 149.227 813.91C149.181 812.85 149.219 811.788 149.339 810.734Z" fill="#455A64"/>
<path d="M115.755 302.845L154.047 305.684C154.565 301.179 155.309 284.037 155.309 284.037C155.309 284.037 171.279 282.573 172.45 266.761C173.621 250.948 173.126 214.436 173.126 214.436C164.371 210.011 154.593 208.006 144.804 208.627C135.014 209.249 125.569 212.475 117.444 217.972L114.989 219.639L115.755 302.845Z" fill="#E5BAAB"/>
<path d="M167.675 241.398C167.371 241.078 167.168 240.677 167.09 240.243C167.013 239.81 167.064 239.363 167.238 238.958C167.412 238.553 167.7 238.208 168.068 237.966C168.436 237.723 168.867 237.594 169.308 237.594C169.748 237.594 170.179 237.723 170.547 237.966C170.915 238.208 171.204 238.553 171.377 238.958C171.551 239.363 171.603 239.81 171.525 240.243C171.447 240.677 171.244 241.078 170.941 241.398C170.73 241.619 170.477 241.796 170.196 241.916C169.915 242.037 169.613 242.099 169.308 242.099C169.002 242.099 168.7 242.037 168.419 241.916C168.138 241.796 167.885 241.619 167.675 241.398Z" fill="#263238"/>
<path d="M171.729 238.019C171.459 238.289 169.995 237.005 167.81 236.848C165.625 236.69 163.98 237.726 163.755 237.433C163.53 237.141 163.913 236.825 164.656 236.352C165.615 235.723 166.758 235.437 167.9 235.541C169.05 235.61 170.145 236.062 171.008 236.825C171.661 237.388 171.864 237.861 171.729 238.019Z" fill="#263238"/>
<path d="M146.501 238.379C146.858 238.64 147.13 239 147.284 239.414C147.438 239.828 147.466 240.278 147.366 240.708C147.266 241.138 147.042 241.53 146.722 241.834C146.401 242.137 145.998 242.34 145.563 242.417C145.128 242.493 144.68 242.44 144.275 242.264C143.87 242.088 143.525 241.797 143.284 241.427C143.043 241.057 142.917 240.624 142.92 240.182C142.923 239.74 143.056 239.309 143.302 238.943C143.472 238.691 143.69 238.476 143.944 238.31C144.198 238.145 144.483 238.033 144.782 237.98C145.081 237.927 145.387 237.936 145.682 238.004C145.978 238.073 146.256 238.201 146.501 238.379Z" fill="#263238"/>
<path d="M147.942 238.492C147.672 238.74 146.208 237.456 144.023 237.298C141.838 237.141 140.194 238.199 139.969 237.906C139.743 237.614 140.126 237.276 140.847 236.803C141.824 236.196 142.966 235.912 144.113 235.992C145.26 236.075 146.35 236.525 147.222 237.276C147.875 237.861 148.078 238.379 147.942 238.492Z" fill="#263238"/>
<path d="M155.579 257.007C156.731 256.651 157.932 256.476 159.138 256.489C159.723 256.489 160.196 256.377 160.264 256.061C160.321 255.48 160.212 254.894 159.949 254.372L158.507 249.867C157.12 246.015 156.102 242.041 155.466 237.997C157.212 241.695 158.607 245.548 159.633 249.507L160.985 254.012C161.31 254.757 161.374 255.591 161.165 256.377C161.07 256.588 160.927 256.773 160.747 256.918C160.567 257.063 160.355 257.163 160.129 257.21C159.807 257.252 159.482 257.252 159.16 257.21C157.963 257.334 156.754 257.266 155.579 257.007Z" fill="#263238"/>
<path d="M148.348 258.967C146.096 257.481 154.385 262.684 158.845 262.751C158.035 263.849 156.875 264.639 155.557 264.991C154.24 265.343 152.841 265.236 151.592 264.689C146.952 262.639 148.348 258.967 148.348 258.967Z" fill="white"/>
<path d="M155.219 283.812C147.905 283.503 140.848 281.025 134.946 276.694C134.946 276.694 139.113 288.384 154.993 287.956L155.219 283.812Z" fill="#D78776"/>
<path d="M118.007 233.672C117.647 233.537 106.249 232.05 107.331 245.52C108.412 258.99 121.656 253.426 121.634 253.043C121.611 252.66 118.007 233.672 118.007 233.672Z" fill="#E5BAAB"/>
<path d="M117.016 248.651C117.016 248.651 116.814 248.831 116.431 249.056C115.888 249.334 115.261 249.399 114.674 249.236C113.762 248.75 112.994 248.031 112.449 247.153C111.903 246.275 111.598 245.269 111.565 244.236C111.441 243.086 111.58 241.923 111.971 240.835C112.061 240.404 112.253 240.001 112.532 239.66C112.81 239.319 113.166 239.05 113.57 238.875C113.836 238.789 114.123 238.796 114.385 238.894C114.647 238.992 114.868 239.176 115.012 239.416C115.214 239.776 115.169 240.046 115.237 240.069C115.305 240.091 115.507 239.821 115.237 239.281C115.143 238.95 114.936 238.663 114.651 238.47C114.252 238.232 113.778 238.152 113.322 238.244C112.786 238.396 112.297 238.683 111.903 239.077C111.509 239.472 111.222 239.96 111.07 240.497C110.584 241.703 110.406 243.011 110.552 244.304C110.577 245.507 110.958 246.676 111.648 247.662C112.338 248.648 113.304 249.408 114.426 249.845C114.795 249.922 115.177 249.916 115.544 249.826C115.91 249.736 116.252 249.566 116.543 249.327C117.016 248.989 117.084 248.673 117.016 248.651Z" fill="#D78776"/>
<path d="M174.139 208.737C175.051 208.713 175.945 208.479 176.752 208.054C177.558 207.629 178.257 207.024 178.793 206.286C179.328 205.548 179.687 204.696 179.841 203.797C179.995 202.899 179.941 201.976 179.681 201.102C179.422 200.228 178.965 199.425 178.346 198.755C177.727 198.085 176.962 197.567 176.11 197.241C175.259 196.914 174.344 196.787 173.436 196.871C172.527 196.954 171.651 197.246 170.873 197.722C172.757 196.159 174.291 194.217 175.378 192.024C175.904 190.917 176.077 189.676 175.876 188.468C175.675 187.26 175.108 186.142 174.252 185.266C173.261 184.61 172.114 184.227 170.928 184.156C169.741 184.085 168.557 184.328 167.494 184.861C164.138 186.302 161.48 189.14 158.034 190.334C154.588 191.528 150.736 190.942 147.042 191.1C142.897 191.174 138.882 192.562 135.577 195.064C132.76 197.277 130.937 200.518 130.509 204.074C130.066 203.466 129.576 202.894 129.045 202.362C127.293 200.272 124.929 198.783 122.287 198.105C122.129 198.398 125.215 200.11 128.166 203.173C128.969 203.942 129.722 204.762 130.419 205.628C125.283 204.998 119.629 204.953 115.575 208.151C113.932 209.615 112.634 211.425 111.773 213.45C110.913 215.475 110.511 217.665 110.597 219.864C110.597 224.234 112.399 228.401 113.683 232.591C113.993 233.778 114.528 234.894 115.259 235.879L117.197 247.142L124.247 247.006L123.796 223.378C123.796 223.378 123.076 213.422 131.635 214.368C140.194 215.314 151.907 224.887 168.53 222.454C171.258 222.302 173.915 221.532 176.302 220.202C177.456 219.47 178.395 218.444 179.021 217.228C179.646 216.013 179.936 214.652 179.86 213.287C179.697 211.929 179.004 210.69 177.933 209.838C176.863 208.986 175.499 208.591 174.139 208.737Z" fill="#263238"/>
<path d="M317.396 325.348L318.433 318.185C319.492 314.267 320.156 310.252 320.415 306.202C320.585 304.188 320.402 302.161 319.874 300.21C319.343 297.755 318.463 295.388 317.261 293.182C315.955 291.268 317.667 288.677 319.514 289.466C321.361 290.254 325.213 295.345 326.451 302.688C327.69 310.031 333.479 299.85 335.642 296.178C337.804 292.507 345.079 281.447 346.746 281.222C349.179 280.884 349.99 283.474 347.715 287.056C345.44 290.637 339.448 302.012 341.453 303.048C342.954 302.808 344.488 302.885 345.958 303.273C346.195 303.343 346.404 303.484 346.558 303.678C346.711 303.872 346.801 304.108 346.814 304.355C346.805 305.491 346.926 306.624 347.174 307.733C347.174 307.733 350.125 307.058 350.733 308.341C351.144 309.66 351.335 311.038 351.296 312.418C351.296 312.418 353.549 311.653 354.63 312.418C356.882 314.243 353.999 317.374 353.999 317.374C347.367 325.285 340.242 332.771 332.668 339.786L317.149 324.83" fill="#E5BAAB"/>
<path d="M346.273 308.229C345.611 309.621 344.72 310.893 343.638 311.991C342.737 313.072 341.611 314.243 340.282 315.662C339.589 316.399 338.835 317.077 338.029 317.689C337.533 318.084 336.934 318.328 336.303 318.391C335.672 318.455 335.036 318.337 334.47 318.05C334.162 317.869 333.901 317.617 333.709 317.316C333.517 317.014 333.4 316.671 333.367 316.315C333.321 315.681 333.462 315.046 333.772 314.491C334.327 313.654 334.929 312.85 335.574 312.081C336.723 310.639 337.669 309.288 338.457 308.116C339.214 306.792 340.08 305.534 341.048 304.355C340.672 305.853 340.031 307.272 339.156 308.544C338.337 309.992 337.435 311.391 336.453 312.734C335.855 313.452 335.298 314.204 334.786 314.986C334.38 315.73 334.403 316.653 335.056 316.991C335.424 317.146 335.826 317.201 336.222 317.149C336.618 317.098 336.993 316.942 337.309 316.698C338.056 316.132 338.764 315.515 339.426 314.851C340.777 313.59 341.949 312.396 342.917 311.382C343.926 310.22 345.051 309.163 346.273 308.229Z" fill="#D78776"/>
<path d="M350.215 312.846C349.553 314.049 348.701 315.136 347.693 316.068C346.675 317.158 345.568 318.16 344.382 319.063C343.67 319.602 342.916 320.084 342.129 320.505C341.661 320.739 341.16 320.899 340.642 320.978C340.329 321.029 340.009 321.013 339.702 320.932C339.396 320.85 339.11 320.705 338.863 320.505C338.447 320.075 338.184 319.52 338.115 318.925C338.046 318.331 338.174 317.73 338.48 317.216C338.936 316.414 339.472 315.659 340.079 314.964C341.07 313.815 341.994 312.711 342.917 311.608C344.562 309.716 345.643 308.612 345.778 308.702C345.184 309.939 344.426 311.09 343.526 312.126L341.003 315.707C340.471 316.345 339.989 317.022 339.561 317.734C339.388 318.022 339.307 318.356 339.331 318.691C339.356 319.025 339.483 319.345 339.696 319.604C340.102 319.987 340.958 319.829 341.701 319.469C342.441 319.086 343.155 318.657 343.841 318.185C345.011 317.35 346.132 316.447 347.197 315.482C348.092 314.484 349.106 313.599 350.215 312.846Z" fill="#D78776"/>
<path d="M351.139 319.288C351.251 319.288 351.139 320.302 350.08 321.541C349.759 321.924 349.364 322.24 348.92 322.468C348.475 322.696 347.988 322.833 347.49 322.87C346.845 322.875 346.217 322.661 345.71 322.262C345.431 322.028 345.207 321.735 345.055 321.403C344.903 321.072 344.827 320.711 344.832 320.347C345.01 319.199 345.475 318.115 346.183 317.194C346.658 316.45 347.177 315.736 347.737 315.054C348.706 313.882 349.404 313.274 349.539 313.387C349.675 313.5 349.179 314.265 348.413 315.639C347.963 316.428 347.512 317.149 347.107 317.892C346.564 318.686 346.188 319.583 346.003 320.527C346.02 320.91 346.185 321.271 346.462 321.535C346.739 321.799 347.107 321.947 347.49 321.946C348.237 321.923 348.95 321.626 349.494 321.113C350.508 320.032 350.981 319.198 351.139 319.288Z" fill="#D78776"/>
<path d="M315.707 316.045C315.707 316.045 256.624 374.181 248.335 374.609C238.875 375.06 209.773 333.794 209.773 333.794C191.145 305.053 166.57 300.413 157.606 299.692V296.133L113.57 292.529C113.57 292.529 113.57 296.313 113.57 299.624H94.1308C94.1308 299.624 59.2174 298.025 53.9917 344.922L79.0843 364.766L89.3781 403.058C92.9595 416.393 80.1655 437.634 74.0613 472.029C73.1198 477.763 74.0769 483.647 76.7867 488.787L203.939 503.406L197.182 406.189L195.132 383.664C205.606 397.967 224.414 418.195 247.457 417.744C286.763 417.001 341.363 334.403 341.363 334.403L315.707 316.045Z" fill="#E0E0E0"/>
<path d="M142.784 295.502C143.003 297.501 143.003 299.518 142.784 301.516C142.456 306.521 141.779 311.496 140.757 316.405L140.6 317.149L139.924 316.788C138.392 315.977 136.793 315.121 135.171 314.175C128.864 310.459 123.481 306.63 119.404 303.972C117.203 302.632 115.082 301.166 113.052 299.579C113.726 299.776 114.37 300.064 114.966 300.435C116.138 301.088 117.827 302.034 119.854 303.273C123.954 305.751 129.405 309.49 135.622 313.162C137.198 314.085 138.775 314.964 140.307 315.775L139.473 316.158C140.78 310.346 141.41 305.143 141.883 301.449C142.063 299.45 142.364 297.464 142.784 295.502Z" fill="#FAFAFA"/>
<path d="M157.741 299.94C157.458 301.875 157.037 303.787 156.48 305.661C156.052 307.44 155.601 309.558 154.836 311.855C154.437 313.07 153.963 314.259 153.416 315.414C153.259 315.829 152.975 316.183 152.606 316.428C152.349 316.585 152.047 316.651 151.748 316.614C151.449 316.577 151.172 316.44 150.961 316.225C150.539 315.603 150.199 314.929 149.948 314.22C147.695 309.107 145.916 304.467 144.609 301.066C143.788 299.284 143.161 297.419 142.74 295.502C143.792 297.159 144.675 298.917 145.375 300.751C146.884 304.062 148.889 308.657 151.029 313.77C151.237 314.339 151.493 314.889 151.795 315.414C151.907 315.414 151.795 315.414 151.997 315.414C152.167 315.277 152.299 315.099 152.38 314.896C152.919 313.788 153.4 312.653 153.822 311.495C154.61 309.242 155.151 307.17 155.669 305.436C156.117 303.521 156.814 301.673 157.741 299.94Z" fill="#FAFAFA"/>
<path d="M149.542 457.253C149.435 456.726 149.374 456.191 149.362 455.653C149.362 454.482 149.272 452.98 149.092 451.148C148.912 447.004 148.641 441.26 148.326 434.21C147.785 419.794 147.019 400.085 146.209 378.326C145.398 356.567 144.88 336.858 144.429 322.442C144.271 315.369 144.136 309.625 144.024 305.481C144.024 303.589 144.024 302.057 144.024 300.976C143.965 300.437 143.965 299.893 144.024 299.354C144.127 299.881 144.18 300.416 144.181 300.953C144.181 302.125 144.362 303.656 144.474 305.458C144.654 309.58 144.925 315.324 145.24 322.374C145.781 336.79 146.524 356.499 147.357 378.258C148.191 400.017 148.664 419.726 149.137 434.165C149.294 441.215 149.43 446.959 149.542 451.103C149.542 453.018 149.542 454.55 149.542 455.721C149.595 456.23 149.595 456.743 149.542 457.253Z" fill="#F5F5F5"/>
<path d="M141.523 309.738L145.217 319.919L148.393 308.995L143.461 298.048L141.523 309.738Z" fill="#286B91"/>
<path d="M145.893 316.878L143.46 431.484L160.759 467.659L167.584 426.957L145.893 316.878Z" fill="#286B91"/>
<path d="M248.966 388.777C248.966 388.777 248.966 389.115 248.966 389.678L248.831 390.534L248.448 389.678C247.577 387.4 247.075 384.997 246.962 382.561C246.589 379.843 246.915 377.076 247.908 374.519C248.246 374.519 247.908 378.123 248.133 382.493C248.313 385.601 248.809 388.259 248.966 389.543H248.448C248.651 388.935 248.876 388.777 248.966 388.777Z" fill="#FAFAFA"/>
<path d="M254.034 388.394C252.354 386.632 251.105 384.504 250.385 382.178C249.301 380.03 248.709 377.668 248.651 375.262C249.797 377.357 250.733 379.56 251.444 381.84C252.518 383.935 253.386 386.131 254.034 388.394Z" fill="#FAFAFA"/>
<path d="M337.669 339.876C332.797 337.299 328.115 334.378 323.658 331.136C318.988 328.221 314.532 324.977 310.324 321.428C315.193 324.026 319.875 326.961 324.334 330.213C329.003 333.113 333.459 336.343 337.669 339.876Z" fill="#FAFAFA"/>
<path d="M92.0818 358.279C92.0818 358.279 82.7115 423.601 87.1488 427.25C111.656 447.86 145.713 458.672 157.877 462.073C159.656 461.645 161.728 461.082 164.116 460.316C166.186 459.659 168.128 458.653 169.86 457.343C172.071 455.792 174.057 453.942 175.761 451.847C176.019 451.397 176.409 451.039 176.879 450.821C177.349 450.603 177.875 450.536 178.385 450.63C178.894 450.724 179.362 450.974 179.723 451.345C180.084 451.716 180.321 452.191 180.401 452.703C180.514 454.955 176.91 460.744 170.13 464.979C170.13 464.979 185.74 490.094 190.718 492.369C195.696 494.644 209.931 501.041 207.521 502.257C205.111 503.473 187.789 498.45 187.789 498.45L152.651 489.058C152.651 489.058 36.4231 470.835 44.1491 417.519C48.9018 384.835 54.0825 355.396 55.952 347.94L92.0818 358.279Z" fill="#E5BAAB"/>
<path d="M53.9921 344.899L43.6757 416.1C41.2656 438.017 55.9517 455.428 75.7059 465.226C105.776 480.115 150.421 490.747 150.038 490.679C149.655 490.612 153.056 458.897 153.056 458.897C153.056 458.897 90.4596 431.867 88.5 420.154C86.5403 408.441 96.4512 359.788 96.4512 359.788L53.9921 344.899Z" fill="#E0E0E0"/>
<path d="M149.948 490.679C149.924 490.492 149.924 490.303 149.948 490.116C149.948 489.666 149.948 489.125 150.06 488.472C150.173 486.918 150.33 484.823 150.556 482.142C151.029 476.556 151.727 468.628 152.56 458.874L152.808 459.28L121.273 444.031L112.264 439.526C109.223 437.904 106.159 436.124 103.119 434.165C100.033 432.173 97.0698 430 94.2438 427.655C92.8247 426.461 91.4057 425.2 90.0542 423.871C89.2921 423.202 88.6783 422.381 88.2522 421.461C88.0134 421.015 87.839 420.537 87.7341 420.042C87.5862 419.571 87.4807 419.089 87.4188 418.6C86.4052 410.807 88.4774 403.463 89.6713 396.458C90.8651 389.453 92.0589 382.628 93.1851 376.186C95.4376 363.257 97.4874 351.634 99.1992 341.813C100.124 337.463 100.651 333.037 100.776 328.591C100.819 325.246 100.127 321.931 98.7487 318.883C97.8644 316.959 96.6091 315.23 95.0547 313.792C93.9735 312.824 93.3203 312.441 93.3428 312.373C94.0129 312.711 94.6405 313.127 95.2123 313.612C96.8662 315.007 98.209 316.734 99.1542 318.68C100.633 321.775 101.402 325.161 101.407 328.591C101.356 333.078 100.881 337.551 99.9876 341.948C98.3433 351.792 96.3836 363.437 94.2213 376.389C93.1176 382.853 91.9688 389.656 90.775 396.661C90.4822 398.418 90.1668 400.197 89.8515 401.999C89.5361 403.801 89.1982 405.558 88.9505 407.36C88.3582 411.002 88.2597 414.707 88.6576 418.375C88.729 418.823 88.8267 419.267 88.9505 419.704C89.0391 420.137 89.1909 420.554 89.401 420.943C89.772 421.738 90.3097 422.445 90.9777 423.015C92.3067 424.321 93.6807 425.56 95.0772 426.732C97.8655 429.053 100.792 431.205 103.839 433.174C106.835 435.133 109.853 436.89 112.849 438.512L121.859 443.017L153.146 458.604L153.394 458.739V459.009C152.38 468.763 151.569 476.669 151.006 482.255C150.691 484.913 150.466 487.03 150.285 488.562C150.195 489.223 150.128 489.763 150.083 490.184C150.054 490.353 150.008 490.519 149.948 490.679Z" fill="#FAFAFA"/>
<path d="M144.136 454.55C144.203 456.181 144.074 457.814 143.753 459.415C143.37 462.388 142.74 466.488 141.906 470.993C141.073 475.498 140.127 479.552 139.361 482.458C139.052 484.06 138.529 485.613 137.807 487.075C137.885 485.447 138.134 483.832 138.55 482.255C139.211 478.861 139.962 475.032 140.802 470.768C141.591 465.3 142.704 459.885 144.136 454.55Z" fill="#FAFAFA"/>
<path d="M149.948 490.679C149.573 490.677 149.2 490.617 148.844 490.499L145.758 489.756L134.496 486.783C124.968 484.215 111.723 480.836 97.5327 475.633C90.8548 473.191 84.3524 470.293 78.0713 466.961C72.9399 464.231 68.0428 461.082 63.4302 457.545C60.3178 455.163 57.382 452.558 54.6455 449.752C53.6769 448.761 52.9787 447.972 52.393 447.499C52.1249 447.234 51.8972 446.93 51.7173 446.598C51.7173 446.598 52.8435 447.657 54.8708 449.527C57.7266 452.185 60.735 454.674 63.8807 456.982C68.5386 460.333 73.4316 463.344 78.5218 465.992C84.7872 469.248 91.258 472.092 97.893 474.507C111.994 479.687 125.216 483.179 134.676 485.972L145.938 489.283L148.979 490.251C149.319 490.352 149.645 490.496 149.948 490.679Z" fill="#FAFAFA"/>
<path d="M150.713 462.163C150.726 462.565 150.62 462.963 150.406 463.305C150.193 463.646 149.882 463.916 149.515 464.081C149.147 464.245 148.739 464.297 148.342 464.228C147.945 464.159 147.577 463.974 147.286 463.696C146.995 463.417 146.793 463.058 146.707 462.665C146.62 462.272 146.653 461.861 146.801 461.487C146.949 461.112 147.205 460.79 147.537 460.561C147.868 460.333 148.26 460.208 148.663 460.203C149.193 460.197 149.705 460.399 150.088 460.765C150.471 461.131 150.695 461.633 150.713 462.163Z" fill="#FAFAFA"/>
</svg>
