<svg width="25" height="20" viewBox="0 0 25 20" fill="none" xmlns="http://www.w3.org/2000/svg">
<path fill-rule="evenodd" clip-rule="evenodd" d="M12.4732 5.57939L12.5258 6.37996L11.6488 6.28193C8.45643 5.90615 5.66751 4.63177 3.29956 2.49147L2.14189 1.42949L1.8437 2.21372C1.21225 3.96191 1.61568 5.80812 2.93121 7.04983C3.63282 7.73603 3.47496 7.83406 2.26467 7.4256C1.8437 7.2949 1.47535 7.19687 1.44027 7.24588C1.31749 7.36025 1.73846 8.84703 2.07173 9.4352C2.52778 10.2521 3.45742 11.0527 4.47476 11.5265L5.33424 11.9023L4.3169 11.9186C3.33464 11.9186 3.29956 11.9349 3.4048 12.278C3.75561 13.34 5.1413 14.4674 6.68485 14.9575L7.77236 15.3006L6.82518 15.8234C5.42194 16.575 3.77315 16.9998 2.12435 17.0325C1.33503 17.0488 0.686035 17.1142 0.686035 17.1632C0.686035 17.3266 2.82596 18.2415 4.07133 18.6009C7.80744 19.6629 12.2452 19.2054 15.5778 17.3919C17.9458 16.1012 20.3137 13.5361 21.4188 11.0527C22.0152 9.72929 22.6115 7.31124 22.6115 6.15123C22.6115 5.39967 22.6642 5.30164 23.6464 4.40304C24.2253 3.88021 24.769 3.30838 24.8743 3.145C25.0497 2.83457 25.0321 2.83457 24.1376 3.11232C22.6466 3.60247 22.4361 3.53711 23.1728 2.80189C23.7166 2.27907 24.3656 1.33146 24.3656 1.05371C24.3656 1.00469 24.1025 1.08638 23.8043 1.23343C23.4886 1.39681 22.7869 1.64188 22.2607 1.78893L21.3135 2.06668L20.4541 1.52752C19.9805 1.23343 19.3139 0.906664 18.9631 0.808634C18.0686 0.579899 16.7004 0.612576 15.8936 0.873987C13.701 1.60921 12.3153 3.50444 12.4732 5.57939Z" fill="#0A142F"/>
</svg>
